<svg id="Layer_1" data-name="Layer 1" xmlns="http://www.w3.org/2000/svg" viewBox="0 0 83 83"><defs><style>.cls-1{fill:#23d96c;}.cls-1,.cls-3{fill-rule:evenodd;}.cls-2,.cls-3{fill:#173647;}</style></defs><title>HP</title><path class="cls-1" d="M59.206,6.526q-.942-.567-1.926-1.063c-.671-.33-1.361-.651-2.061-.929-.221-.094-.44-.179-.664-.266-.612-.228-1.229-.48-1.86-.666A34.809,34.809,0,1,0,35.218,70.851V80.82c20.839-3.143,39.293-19.684,40.668-41.4C76.715,26.349,70.2,13.008,59.206,6.526Z"/><path class="cls-2" d="M33.342,83V72.363A36.684,36.684,0,1,1,53.281,1.82c.492.143,1.005.339,1.5.528l.5.189c.225.088.447.175.671.27.619.246,1.316.56,2.156.973.708.356,1.4.736,2.058,1.135,11.409,6.732,18.479,20.644,17.593,34.622C76.4,61.046,58.623,79.188,35.5,82.675Zm8.57-79.248h-.046A32.93,32.93,0,0,0,35.578,69.01l1.516.3v9.285c20.33-3.986,35.711-20.2,36.92-39.292.8-12.6-5.535-25.126-15.761-31.156l-.016-.01c-.584-.352-1.189-.687-1.8-.994-.733-.361-1.346-.637-1.911-.861-.229-.1-.417-.171-.609-.245l-.471-.179c-.447-.17-.869-.331-1.277-.451A32.751,32.751,0,0,0,41.912,3.752Z"/><path class="cls-3" d="M34.911,19.025a3.218,3.218,0,0,1,2.825,1.086,7.457,7.457,0,0,1,1.3,1.976c1.151,2.538,1.833,6.177.41,8.219a11.3,11.3,0,0,1-7.1-5.509,5.767,5.767,0,0,1-.62-2.39A3.493,3.493,0,0,1,34.911,19.025Z"/><path class="cls-3" d="M26.544,27.686a3.5,3.5,0,0,1,.57,0,6.547,6.547,0,0,1,2.573.573c2.561,1.1,5.421,3.779,5.971,6.158-2.2,1.464-6.154,1.344-8.716.246a13.836,13.836,0,0,1-2.174-1.315A3.153,3.153,0,0,1,26.544,27.686Z"/><path class="cls-3" d="M29.687,45.984a5.9,5.9,0,0,1-2.573.573A3.243,3.243,0,0,1,24.6,40.9a6.276,6.276,0,0,1,2.174-1.317,7.889,7.889,0,0,1,2.974-.628c1.665-.03,4.525-.4,5.912.522C35.291,41.853,32.248,44.887,29.687,45.984Z"/><path class="cls-3" d="M40.244,51.875a13.281,13.281,0,0,1-1.257,2.173c-1.83,2.379-6.073.709-5.89-2.4A5.522,5.522,0,0,1,33.67,49.3c1.1-2.562,4.083-5.709,6.645-6.258C41.779,45.24,41.342,49.5,40.244,51.875Z"/><path class="cls-3" d="M44.727,22.026a13.258,13.258,0,0,1,1.258-2.173,3.272,3.272,0,0,1,2.859-1.144,3.42,3.42,0,0,1,3.2,3.488,5.785,5.785,0,0,1-.571,2.4,10.6,10.6,0,0,1-6.6,5.653C43.232,28.24,43.628,24.588,44.727,22.026Z"/><path class="cls-3" d="M46.328,54.048a7.358,7.358,0,0,1-1.257-2c-1.1-2.562-1.06-6.395.4-8.408,2.562.549,5.245,3.273,6.343,5.835a5.768,5.768,0,0,1,.573,2.4C52.573,54.619,48.34,56.244,46.328,54.048Z"/><path class="cls-3" d="M57.535,46.385a6.544,6.544,0,0,1-2.573-.571c-2.561-1.1-5.369-3.664-5.918-6.042,1.408-.925,4.005-1.022,5.689-.992a7.919,7.919,0,0,1,2.974.63,13.273,13.273,0,0,1,2.172,1.257C62.44,42.5,60.829,46.568,57.535,46.385Z"/></svg>